<svg width="253" height="36" viewBox="0 0 253 36" fill="none" xmlns="http://www.w3.org/2000/svg">
<path d="M7.5 27.9904C9.86806 29.3576 12.5648 30.0515 15.2987 29.997C18.0325 29.9426 20.6995 29.1419 23.0113 27.6815C25.323 26.2211 27.1916 24.1565 28.415 21.7111C29.6384 19.2656 30.17 16.5322 29.9524 13.8065C29.7349 11.0808 28.7764 8.46636 27.1806 6.24592C25.5848 4.02548 23.4123 2.2835 20.8982 1.20829C18.3841 0.133086 15.6238 -0.234428 12.916 0.145481C10.2081 0.525389 7.65554 1.63827 5.53434 3.3638L15 15L7.5 27.9904Z" fill="#F94545"/>
<path d="M7.5 27.9904C9.86806 29.3576 12.5648 30.0515 15.2987 29.997C18.0325 29.9426 20.6995 29.1419 23.0113 27.6815C25.323 26.2211 27.1916 24.1565 28.415 21.7111C29.6384 19.2656 30.17 16.5322 29.9524 13.8065C29.7349 11.0808 28.7764 8.46636 27.1806 6.24592C25.5848 4.02548 23.4123 2.2835 20.8982 1.20829C18.3841 0.133086 15.6238 -0.234428 12.916 0.145481C10.2081 0.525389 7.65554 1.63827 5.53434 3.3638L15 15L7.5 27.9904Z" fill="white" fill-opacity="0.6"/>
<path d="M30 20H31C32.0609 20 33.0783 20.4214 33.8284 21.1716C34.5786 21.9217 35 22.9391 35 24C35 25.0609 34.5786 26.0783 33.8284 26.8284C33.0783 27.5786 32.0609 28 31 28H30" stroke="#1A162E" stroke-width="1.5" stroke-linecap="round" stroke-linejoin="round"/>
<path d="M14 20H30V29C30 30.0609 29.5786 31.0783 28.8284 31.8284C28.0783 32.5786 27.0609 33 26 33H18C16.9391 33 15.9217 32.5786 15.1716 31.8284C14.4214 31.0783 14 30.0609 14 29V20Z" stroke="#1A162E" stroke-width="1.5" stroke-linecap="round" stroke-linejoin="round"/>
<path d="M18 13V16" stroke="#1A162E" stroke-width="1.5" stroke-linecap="round" stroke-linejoin="round"/>
<path d="M22 13V16" stroke="#1A162E" stroke-width="1.5" stroke-linecap="round" stroke-linejoin="round"/>
<path d="M26 13V16" stroke="#1A162E" stroke-width="1.5" stroke-linecap="round" stroke-linejoin="round"/>
<path d="M57.072 22.144C58.656 22.144 60.064 21.632 61.008 20.864C61.952 20.096 62.56 19.248 62.864 18.368L61.072 17.552C60.768 18.368 60.24 19.04 59.504 19.552C58.784 20.048 57.984 20.304 57.12 20.304C55.968 20.304 54.96 19.872 54.112 19.024C53.264 18.16 52.848 17.056 52.848 15.712C52.848 14.352 53.28 13.264 54.128 12.416C54.976 11.568 55.984 11.136 57.12 11.136C59.088 11.136 60.4 12.256 61.024 13.872L62.8 13.056C62.528 12.16 61.92 11.312 61.024 10.56C60.128 9.792 58.736 9.296 57.152 9.296C55.408 9.296 53.92 9.92 52.656 11.152C51.392 12.384 50.768 13.92 50.768 15.776C50.768 17.744 51.536 19.424 52.736 20.496C53.936 21.536 55.472 22.144 57.072 22.144ZM68.5598 13.28C67.3118 13.28 66.2398 13.712 65.3598 14.56C64.4798 15.408 64.0318 16.464 64.0318 17.712C64.0318 18.96 64.4638 20.016 65.3438 20.864C66.2238 21.712 67.2958 22.144 68.5438 22.144C69.8078 22.144 70.8638 21.712 71.7278 20.864C72.6078 20 73.0398 18.944 73.0398 17.68C73.0398 16.432 72.6078 15.392 71.7278 14.544C70.8478 13.696 69.7918 13.28 68.5598 13.28ZM66.6878 15.792C67.1678 15.264 67.7918 15.008 68.5438 15.008C69.2958 15.008 69.9198 15.264 70.3838 15.792C70.8638 16.32 71.1038 16.96 71.1038 17.712C71.1038 18.464 70.8638 19.104 70.3998 19.632C69.9358 20.16 69.3118 20.416 68.5598 20.416C67.8078 20.416 67.1838 20.144 66.7038 19.616C66.2238 19.072 65.9838 18.432 65.9838 17.68C65.9838 16.928 66.2238 16.304 66.6878 15.792ZM78.902 22.144C79.942 22.144 80.79 21.888 81.446 21.376C82.102 20.864 82.566 20.256 82.806 19.568L81.142 18.832C80.742 19.888 80.006 20.416 78.934 20.416C78.214 20.416 77.606 20.16 77.126 19.648C76.646 19.136 76.406 18.48 76.406 17.68C76.406 16.896 76.646 16.256 77.126 15.76C77.622 15.264 78.214 15.008 78.918 15.008C80.006 15.008 80.742 15.536 81.11 16.576L82.742 15.84C82.23 14.32 80.822 13.28 78.902 13.28C77.638 13.28 76.582 13.712 75.734 14.592C74.886 15.472 74.454 16.512 74.454 17.712C74.454 18.976 74.886 20.032 75.734 20.88C76.582 21.728 77.638 22.144 78.902 22.144ZM84.6394 22H86.5434V17.824H86.5914L90.1594 22H92.6714L88.6074 17.328L92.4634 13.456H89.8714L86.5594 16.816H86.5434V8.976H84.6394V22ZM98.5766 15.168V13.456H96.4806V10.816H94.5766V13.456H93.0086V15.168H94.5766V19.248C94.5766 21.104 95.6646 22.096 97.5366 22.096C97.9046 22.096 98.2566 22.032 98.5606 21.92V20.304C98.3526 20.352 98.1446 20.368 97.9526 20.368C96.9766 20.368 96.4806 19.968 96.4806 18.944V15.168H98.5766ZM105.457 16.208C105.457 16.688 105.185 16.928 104.657 16.928H103.601C102.097 16.928 100.049 17.552 100.049 19.536V19.632C100.049 20.368 100.321 20.976 100.865 21.44C101.409 21.904 102.097 22.144 102.929 22.144C104.081 22.144 104.913 21.712 105.441 20.832V22H107.313V16.56C107.313 15.968 107.217 15.456 107.025 15.024C106.497 13.856 105.425 13.28 103.825 13.28C102.081 13.28 100.865 14 100.193 15.456L101.649 16.288C102.081 15.376 102.801 14.928 103.777 14.928C104.849 14.928 105.457 15.504 105.457 16.208ZM105.441 18.544C105.441 19.824 104.609 20.624 103.313 20.624C102.497 20.624 101.953 20.16 101.953 19.456C101.953 19.088 102.129 18.8 102.465 18.592C102.817 18.384 103.201 18.272 103.601 18.272H105.441V18.544ZM109.844 11.568C110.34 12.064 111.108 12.064 111.604 11.568C112.1 11.072 112.1 10.304 111.604 9.808C111.108 9.296 110.34 9.296 109.844 9.808C109.348 10.304 109.348 11.072 109.844 11.568ZM111.684 13.456H109.78V22H111.684V13.456ZM114.233 22H116.137V8.976H114.233V22ZM121.454 22.144C122.414 22.144 123.198 21.904 123.79 21.408C124.382 20.912 124.686 20.272 124.686 19.488C124.686 18.16 123.662 17.232 121.726 16.8C120.622 16.56 120.142 16.272 120.142 15.712C120.142 15.248 120.75 14.88 121.342 14.88C122.158 14.88 122.75 15.264 123.134 16.032L124.606 15.2C124.014 13.92 122.942 13.28 121.406 13.28C120.574 13.28 119.854 13.52 119.23 14.016C118.606 14.512 118.302 15.136 118.302 15.904C118.302 16.512 118.51 17.024 118.91 17.456C119.374 17.952 120.094 18.288 121.038 18.48C122.206 18.72 122.798 19.104 122.798 19.6C122.798 20.176 122.174 20.544 121.454 20.544C120.542 20.544 119.87 20.08 119.406 19.168L117.918 20C118.574 21.424 119.758 22.144 121.454 22.144ZM140.84 22L138.792 19.632C139.64 18.512 140.232 17.264 140.552 15.904L138.808 15.488C138.536 16.496 138.136 17.408 137.592 18.256L135.432 15.744L136.232 15.28C137.528 14.528 138.184 13.568 138.184 12.4C138.184 11.552 137.832 10.832 137.144 10.224C136.456 9.6 135.64 9.296 134.712 9.296C133.736 9.296 132.92 9.616 132.264 10.24C131.608 10.864 131.288 11.616 131.288 12.48C131.288 13.2 131.592 13.904 132.2 14.608L132.92 15.44C131.24 16.512 130.424 17.52 130.424 18.864C130.424 19.936 130.792 20.752 131.528 21.312C132.28 21.872 133.208 22.144 134.328 22.144C135.496 22.144 136.6 21.728 137.608 20.88L138.568 22H140.84ZM133.704 13.744C132.952 12.864 132.984 12.016 133.608 11.424C133.912 11.12 134.296 10.96 134.76 10.96C135.672 10.96 136.36 11.664 136.36 12.48C136.36 13.072 136.088 13.52 135.56 13.84L134.392 14.544L133.704 13.744ZM134.344 20.4C133.64 20.4 132.376 20.128 132.376 18.608C132.376 17.936 132.904 17.28 133.944 16.64L136.456 19.536C135.768 20.112 135.064 20.4 134.344 20.4ZM158.699 22H160.651V9.472H158.075L153.899 19.056H153.883L149.643 9.472H147.131V22H149.067V12.912H149.099L153.147 22H154.603L158.667 12.864H158.699V22ZM163.594 11.568C164.09 12.064 164.858 12.064 165.354 11.568C165.85 11.072 165.85 10.304 165.354 9.808C164.858 9.296 164.09 9.296 163.594 9.808C163.098 10.304 163.098 11.072 163.594 11.568ZM165.434 13.456H163.53V22H165.434V13.456ZM166.927 22H169.103L171.247 19.024L173.407 22H175.599L172.367 17.648L175.487 13.456H173.343L171.279 16.288L169.231 13.456H167.039L170.175 17.68L166.927 22ZM184.527 18.288C184.543 18.144 184.559 17.952 184.559 17.696C184.559 16.368 184.191 15.312 183.455 14.496C182.719 13.68 181.695 13.28 180.399 13.28C179.167 13.28 178.143 13.712 177.327 14.576C176.511 15.44 176.095 16.48 176.095 17.712C176.095 18.976 176.527 20.048 177.375 20.896C178.239 21.744 179.311 22.16 180.575 22.16C182.111 22.16 183.503 21.424 184.223 20.096L182.847 19.184C182.383 20.064 181.615 20.512 180.543 20.512C179.887 20.512 179.311 20.304 178.815 19.888C178.319 19.456 178.063 18.928 178.047 18.288H184.527ZM180.399 14.912C181.615 14.912 182.559 15.648 182.623 16.848H178.143C178.319 15.68 179.231 14.912 180.399 14.912ZM189.282 22.144C190.242 22.144 191.026 21.904 191.618 21.408C192.21 20.912 192.514 20.272 192.514 19.488C192.514 18.16 191.49 17.232 189.554 16.8C188.45 16.56 187.97 16.272 187.97 15.712C187.97 15.248 188.578 14.88 189.17 14.88C189.986 14.88 190.578 15.264 190.962 16.032L192.434 15.2C191.842 13.92 190.77 13.28 189.234 13.28C188.402 13.28 187.682 13.52 187.058 14.016C186.434 14.512 186.13 15.136 186.13 15.904C186.13 16.512 186.338 17.024 186.738 17.456C187.202 17.952 187.922 18.288 188.866 18.48C190.034 18.72 190.626 19.104 190.626 19.6C190.626 20.176 190.002 20.544 189.282 20.544C188.37 20.544 187.698 20.08 187.234 19.168L185.746 20C186.402 21.424 187.586 22.144 189.282 22.144ZM204.556 22.144C206.14 22.144 207.548 21.632 208.492 20.864C209.436 20.096 210.044 19.248 210.348 18.368L208.556 17.552C208.252 18.368 207.724 19.04 206.988 19.552C206.268 20.048 205.468 20.304 204.604 20.304C203.452 20.304 202.444 19.872 201.596 19.024C200.748 18.16 200.332 17.056 200.332 15.712C200.332 14.352 200.764 13.264 201.612 12.416C202.46 11.568 203.468 11.136 204.604 11.136C206.572 11.136 207.884 12.256 208.508 13.872L210.284 13.056C210.012 12.16 209.404 11.312 208.508 10.56C207.612 9.792 206.22 9.296 204.636 9.296C202.892 9.296 201.404 9.92 200.14 11.152C198.876 12.384 198.252 13.92 198.252 15.776C198.252 17.744 199.02 19.424 200.22 20.496C201.42 21.536 202.956 22.144 204.556 22.144ZM216.044 13.28C214.796 13.28 213.724 13.712 212.844 14.56C211.964 15.408 211.516 16.464 211.516 17.712C211.516 18.96 211.948 20.016 212.828 20.864C213.708 21.712 214.78 22.144 216.028 22.144C217.292 22.144 218.348 21.712 219.212 20.864C220.092 20 220.524 18.944 220.524 17.68C220.524 16.432 220.092 15.392 219.212 14.544C218.332 13.696 217.276 13.28 216.044 13.28ZM214.172 15.792C214.652 15.264 215.276 15.008 216.028 15.008C216.78 15.008 217.404 15.264 217.868 15.792C218.348 16.32 218.588 16.96 218.588 17.712C218.588 18.464 218.348 19.104 217.884 19.632C217.42 20.16 216.796 20.416 216.044 20.416C215.292 20.416 214.668 20.144 214.188 19.616C213.708 19.072 213.468 18.432 213.468 17.68C213.468 16.928 213.708 16.304 214.172 15.792ZM232.422 10.624C232.694 10.624 232.918 10.64 233.11 10.688V9.056C232.806 8.976 232.518 8.928 232.23 8.928C230.134 8.928 228.87 10.144 228.87 12.256V13.456H225.014V12.32C225.014 11.184 225.558 10.624 226.646 10.624C226.918 10.624 227.142 10.64 227.334 10.688V9.056C227.03 8.976 226.742 8.928 226.454 8.928C224.358 8.928 223.094 10.144 223.094 12.256V13.456H221.526V15.136H223.094V22H225.014V15.136H228.87V22H230.79V15.136H233.062V13.456H230.79V12.32C230.79 11.184 231.334 10.624 232.422 10.624ZM242.308 18.288C242.324 18.144 242.34 17.952 242.34 17.696C242.34 16.368 241.972 15.312 241.236 14.496C240.5 13.68 239.476 13.28 238.18 13.28C236.948 13.28 235.924 13.712 235.108 14.576C234.292 15.44 233.876 16.48 233.876 17.712C233.876 18.976 234.308 20.048 235.156 20.896C236.02 21.744 237.092 22.16 238.356 22.16C239.892 22.16 241.284 21.424 242.004 20.096L240.628 19.184C240.164 20.064 239.396 20.512 238.324 20.512C237.668 20.512 237.092 20.304 236.596 19.888C236.1 19.456 235.844 18.928 235.828 18.288H242.308ZM238.18 14.912C239.396 14.912 240.34 15.648 240.404 16.848H235.924C236.1 15.68 237.012 14.912 238.18 14.912ZM252.152 18.288C252.168 18.144 252.184 17.952 252.184 17.696C252.184 16.368 251.816 15.312 251.08 14.496C250.344 13.68 249.32 13.28 248.024 13.28C246.792 13.28 245.768 13.712 244.952 14.576C244.136 15.44 243.72 16.48 243.72 17.712C243.72 18.976 244.152 20.048 245 20.896C245.864 21.744 246.936 22.16 248.2 22.16C249.736 22.16 251.128 21.424 251.848 20.096L250.472 19.184C250.008 20.064 249.24 20.512 248.168 20.512C247.512 20.512 246.936 20.304 246.44 19.888C245.944 19.456 245.688 18.928 245.672 18.288H252.152ZM248.024 14.912C249.24 14.912 250.184 15.648 250.248 16.848H245.768C245.944 15.68 246.856 14.912 248.024 14.912Z" fill="#1A162E"/>
</svg>
